<?xml version="1.0" standalone="no"?>
<!DOCTYPE svg PUBLIC "-//W3C//DTD SVG 20010904//EN"
 "http://www.w3.org/TR/2001/REC-SVG-20010904/DTD/svg10.dtd">
<svg version="1.0" xmlns="http://www.w3.org/2000/svg"
 width="193.000000pt" height="156.000000pt" viewBox="0 0 193.000000 156.000000"
 preserveAspectRatio="xMidYMid meet">

<g transform="translate(0.000000,156.000000) scale(0.100000,-0.100000)"
fill="#000000" stroke="none">
<path d="M1331 1465 c-272 -51 -504 -98 -516 -103 -24 -11 -151 -125 -542
-489 -206 -191 -263 -249 -263 -268 0 -23 4 -25 43 -25 24 0 93 9 153 20 60
11 112 20 116 20 3 0 9 -26 13 -58 5 -42 2 -65 -9 -86 -23 -44 -1 -86 45 -86
17 0 34 8 43 22 21 30 20 41 -7 75 -16 19 -26 47 -31 86 -3 31 -5 57 -4 57 2
0 41 7 88 15 47 8 88 15 92 15 5 0 37 -58 73 -130 36 -71 67 -130 69 -130 3 0
15 17 27 38 13 20 48 65 77 100 l53 63 -47 57 c-93 113 -114 202 -57 240 35
22 146 20 234 -6 l65 -18 27 76 c37 103 79 168 122 185 78 33 140 -41 175
-208 9 -47 15 -57 28 -53 54 16 115 26 170 26 34 0 62 2 62 5 0 3 -26 56 -57
120 l-57 114 79 72 c44 40 131 123 193 185 89 88 113 118 110 136 -2 19 -10
23 -38 25 -19 1 -257 -40 -529 -92z"/>
<path d="M1183 1106 c-35 -30 -75 -101 -99 -179 -16 -51 -16 -60 -4 -68 23
-14 26 -11 38 24 l11 32 -6 -37 c-5 -35 -3 -38 31 -55 35 -16 39 -16 92 2 36
12 59 26 64 39 7 16 9 17 9 4 1 -24 41 -11 41 14 0 39 -32 143 -56 185 -39 68
-74 79 -121 39z m80 -55 c9 -16 17 -33 17 -38 0 -4 -9 7 -20 25 -30 48 -49 38
-93 -48 -21 -41 -35 -64 -32 -50 18 64 69 140 94 140 9 0 24 -13 34 -29z m34
-103 c-3 -8 -6 -5 -6 6 -1 11 2 17 5 13 3 -3 4 -12 1 -19z m10 -40 c-3 -8 -6
-5 -6 6 -1 11 2 17 5 13 3 -3 4 -12 1 -19z"/>
<path d="M756 879 c-48 -38 -26 -106 68 -214 43 -50 50 -55 63 -42 14 13 9 22
-36 77 -68 82 -65 88 7 10 l58 -63 51 34 c43 29 52 40 57 73 8 44 6 46 -37 64
-27 10 -28 11 -5 7 14 -3 33 -8 42 -11 12 -5 16 0 16 19 0 23 -7 27 -78 46
-102 27 -171 28 -206 0z m151 -35 c-3 -3 -12 -4 -19 -1 -8 3 -5 6 6 6 11 1 17
-2 13 -5z"/>
<path d="M1056 824 c-8 -22 -9 -21 25 -33 17 -6 28 -15 24 -21 -6 -10 42 7 59
22 10 8 -41 31 -54 23 -4 -3 -10 2 -14 10 -7 20 -32 19 -40 -1z"/>
<path d="M1046 774 c-13 -35 -8 -44 19 -32 28 13 33 33 9 42 -21 8 -21 8 -28
-10z"/>
<path d="M1571 516 c-7 -8 -11 -30 -9 -48 3 -31 5 -33 43 -33 38 0 40 1 43 35
5 50 -48 82 -77 46z"/>
</g>
</svg>
